<svg width="804" height="514" viewBox="0 0 804 514" fill="none" xmlns="http://www.w3.org/2000/svg">
<path d="M616.768 2.97581C678.035 16.2966 716.649 74.8274 751.143 139.009C785.123 203.191 814.984 272.621 800.054 338.418C785.638 404.214 727.46 466.378 651.778 494.634C576.096 523.294 482.908 518.047 413.404 492.616C343.9 466.782 298.593 420.764 246.594 386.05C194.595 351.738 135.902 328.73 81.8432 284.731C27.7845 240.328 -22.1556 174.531 10.2796 140.22C42.7149 105.909 157.526 102.68 234.238 93.7994C311.465 84.5152 350.593 69.5798 411.86 45.7638C472.611 21.9479 556.017 -9.94133 616.768 2.97581Z" fill="#FFCFB5"/>
</svg>
