<svg width="576" height="614" viewBox="0 0 576 614" fill="none" xmlns="http://www.w3.org/2000/svg">
<g clip-path="url(#clip0_790_414)">
<path d="M284.744 145.661C321.669 139.92 359.595 138.034 386.123 154.645C412.809 171.106 428.103 205.758 433.63 237.771C438.85 269.777 434.61 299.149 429.299 328.347C423.989 357.545 417.457 386.413 400.337 407.41C383.067 428.25 355.203 441.526 325.818 446.03C296.277 450.683 265.059 446.715 235.37 434.952C205.531 423.033 177.069 403.163 168.671 376.926C160.43 350.538 171.944 317.776 176.608 282.276C181.115 246.927 178.615 208.99 195.33 185.071C212.046 161.152 247.82 151.401 284.744 145.661Z" fill="#FFCFB5"/>
</g>
<defs>
<clipPath id="clip0_790_414">
<rect width="433.799" height="433.799" fill="white" transform="translate(0 300.853) rotate(-43.9104)"/>
</clipPath>
</defs>
</svg>
