<svg width="231" height="294" viewBox="0 0 231 294" fill="none" xmlns="http://www.w3.org/2000/svg">
<path d="M21.9807 212.744C6.47274 195.21 1.42355 167.789 0.584591 136.134C-0.0920097 104.566 3.67767 69.1039 22.3397 43.0398C41.1641 17.0645 74.8808 0.487551 107.835 0.358004C140.701 0.390821 172.643 16.7823 187.63 41.8313C202.868 66.8067 200.99 100.351 205.213 125.423C209.437 150.496 219.512 167.171 225.685 190.99C231.785 214.557 233.909 245.018 220.742 265.651C207.487 286.448 179.03 297.254 154.627 292.147C130.061 286.951 109.55 265.841 86.3922 251.507C63.3081 237.424 37.415 230.027 21.9807 212.744Z" fill="#FFCFB5"/>
</svg>
