<svg width="320" height="150" viewBox="0 0 320 150" fill="none" xmlns="http://www.w3.org/2000/svg">
<g clip-path="url(#clip0_803_416)">
<path d="M174.031 67.0651C176.223 67.9188 178.442 67.8097 179.787 67.6106C180.671 68.6776 182.269 70.2733 184.462 71.1271C187.699 72.3876 192.009 71.8939 194.462 70.0015C194.702 69.8219 200.398 65.5135 203.83 56.085C206.356 49.1437 202.952 41.3715 196.242 38.7583C194.276 37.9926 192.212 38.0409 190.467 38.2667C189.298 36.9064 187.778 35.462 185.812 34.6963C179.101 32.0831 171.588 35.604 169.061 42.5452C165.184 53.1999 166.881 58.5873 167.297 59.6302C168.124 62.2886 170.561 65.7138 174.031 67.0651ZM184.503 38.2929C186.053 38.8968 187.336 40.3449 188.281 41.5402C188.702 42.0737 189.366 42.3324 190.023 42.2185C191.495 41.9643 193.382 41.751 194.933 42.3549C199.726 44.2214 202.157 49.7734 200.353 54.7313C197.341 63.0068 192.342 66.8456 192.269 66.8994C190.98 67.8924 187.996 68.3973 185.771 67.5308C183.53 66.6581 182.127 64.4755 182.118 64.4616C181.897 64.1046 181.575 63.8435 181.21 63.7014C180.845 63.5592 180.437 63.5357 180.043 63.6534C180.018 63.6602 177.581 64.3415 175.34 63.4688C173.125 62.6063 171.357 60.2116 170.817 58.3975C170.799 58.3371 170.765 58.2458 170.74 58.1871C170.723 58.1431 168.99 53.6495 172.538 43.8995C174.342 38.9414 179.71 36.4264 184.503 38.2929Z" fill="#F05600"/>
<path d="M190.509 33.4767C190.63 34.1643 191.092 34.6996 191.683 34.9298C191.987 35.0483 192.327 35.086 192.67 35.0207C193.678 34.8303 194.348 33.8303 194.163 32.7849L192.22 21.7626C192.035 20.7197 191.069 20.0272 190.058 20.2188C189.05 20.4092 188.381 21.4092 188.566 22.4545L190.509 33.4767Z" fill="#F05600"/>
<path d="M196.03 35.3313C196.136 35.42 197.111 36.2207 198.578 36.7921L198.58 36.7928C200.659 37.6025 202.735 37.5728 204.575 36.7089C208.954 34.657 209.2 29.3778 209.209 29.153C209.23 28.5494 208.976 27.9701 208.524 27.5886C208.415 27.4992 207.44 26.6986 205.971 26.1265C203.892 25.3168 201.82 25.3453 199.977 26.2087C195.597 28.2625 195.354 33.5405 195.344 33.7646C195.321 34.3698 195.575 34.9491 196.03 35.3313ZM201.51 29.7086C202.448 29.2691 203.508 29.2734 204.662 29.723C204.907 29.8184 205.133 29.9247 205.329 30.0297C205.082 31.0402 204.483 32.5337 203.042 33.2086C202.104 33.6482 201.042 33.645 199.889 33.1961C199.644 33.1007 199.419 32.9927 199.223 32.8895C199.47 31.8771 200.069 30.3836 201.51 29.7086Z" fill="#F05600"/>
<path d="M219.66 88.9405L136.215 56.4447C133.34 55.325 130.119 56.8342 129.037 59.8085L126.419 67.0015C126.058 67.9941 126.543 69.103 127.503 69.4767C128.462 69.8503 129.534 69.348 129.896 68.3554L132.513 61.1625C132.874 60.1716 133.948 59.6682 134.906 60.0412L140.122 62.0722L136.849 71.0636C136.488 72.0562 136.974 73.1651 137.933 73.5388C138.893 73.9124 139.965 73.4101 140.326 72.4176L143.598 63.4262L188.798 81.0281L185.525 90.0195C185.164 91.012 185.65 92.1209 186.609 92.4946C187.569 92.8683 188.641 92.366 189.002 91.3734L192.274 82.382L209.659 89.1519L206.386 98.1433C206.025 99.1359 206.511 100.245 207.47 100.618C208.43 100.992 209.502 100.49 209.863 99.4973L213.135 90.5059L218.351 92.5369C219.309 92.9099 219.795 94.0211 219.435 95.012L214.853 107.6L209.638 105.569C208.678 105.195 207.606 105.697 207.245 106.69L201.355 122.874L199.617 122.197C198.657 121.824 197.585 122.326 197.224 123.319C196.863 124.311 197.348 125.42 198.308 125.794L203.523 127.825L198.942 140.413C198.581 141.403 197.507 141.907 196.549 141.534L142.658 120.547L145.93 111.556C146.292 110.563 145.806 109.454 144.846 109.081C143.887 108.707 142.815 109.209 142.454 110.202L139.181 119.193L135.704 117.839L138.977 108.848C139.338 107.855 138.852 106.746 137.893 106.373C136.933 105.999 135.861 106.501 135.5 107.494L132.228 116.485L128.751 115.131L132.023 106.14C132.384 105.147 131.899 104.038 130.939 103.665C129.98 103.291 128.908 103.793 128.546 104.786L125.274 113.777L109.628 107.684C108.67 107.311 108.183 106.2 108.544 105.209L111.162 98.0162C111.523 97.0236 111.038 95.9147 110.078 95.541C109.118 95.1674 108.046 95.6697 107.685 96.6623L105.067 103.855C103.985 106.83 105.444 110.161 108.319 111.281L195.241 145.131C198.116 146.251 201.337 144.741 202.42 141.767L207.001 129.179C207.851 126.843 206.519 124.885 204.833 124.229L210.069 109.842L213.546 111.196C215.232 111.853 217.481 111.29 218.332 108.954L222.913 96.3661C223.995 93.392 222.536 90.0602 219.66 88.9405Z" fill="#F05600"/>
<path d="M173.969 116.316C174.928 116.69 176 116.188 176.361 115.195C176.723 114.203 176.237 113.094 175.277 112.72L156.155 105.273L161.39 90.8869L185.729 100.365L175.911 127.339C175.67 128.002 175.801 128.749 176.252 129.282C176.702 129.813 177.403 130.047 178.07 129.888L183.388 128.612L186.571 133.198C186.79 133.513 187.089 133.745 187.426 133.876C187.708 133.986 188.015 134.025 188.324 133.983C189.003 133.89 189.578 133.418 189.819 132.755L199.636 105.781L201.375 106.458C202.334 106.832 203.406 106.329 203.767 105.337C204.129 104.344 203.643 103.235 202.684 102.861L119.239 70.3657C116.315 69.227 113.161 70.7048 112.06 73.7295L108.133 84.5191C107.051 87.4934 108.51 90.8251 111.385 91.9449L173.968 116.317L173.969 116.316ZM189.205 101.719L196.159 104.427L187.565 128.04L185.683 125.33C185.246 124.699 184.484 124.403 183.754 124.578L180.611 125.332L189.205 101.719L189.205 101.719ZM133.576 80.055L157.914 89.5329L152.678 103.919L128.34 94.4411L133.576 80.055ZM111.61 85.8727L115.537 75.0832C115.91 74.0581 116.939 73.576 117.929 73.9619L130.098 78.7009L124.863 93.087L112.694 88.3482C111.719 87.9684 111.243 86.8815 111.61 85.8727Z" fill="#F05600"/>
<path d="M147.914 89.7442C146.955 89.3706 145.883 89.8729 145.521 90.8655L144.212 94.4621C143.851 95.4546 144.337 96.5635 145.296 96.9372C146.256 97.3109 147.328 96.8085 147.689 95.816L148.998 92.2194C149.359 91.2268 148.874 90.1179 147.914 89.7442Z" fill="#F05600"/>
<path d="M140.959 87.0362C140 86.6626 138.927 87.1649 138.566 88.1574L137.257 91.754C136.896 92.7466 137.382 93.8555 138.341 94.2292C139.301 94.6029 140.373 94.1005 140.734 93.108L142.043 89.5114C142.404 88.5189 141.919 87.41 140.959 87.0362Z" fill="#F05600"/>
</g>
<g clip-path="url(#clip1_803_416)">
<path d="M232.949 128.844L234.666 149.337L252.5 140.237L289.197 72.8545L269.646 61.461L232.949 128.844ZM249.404 136.854L238.41 142.463L237.351 129.83L271.283 67.5243L283.336 74.548L249.404 136.854Z" fill="#F05600"/>
<path d="M280.45 41.6268L272.184 56.8043L291.735 68.1976L300.001 53.0201L280.45 41.6268ZM278.045 55.1108L282.087 47.6901L294.139 54.7136L290.098 62.1343L278.045 55.1108Z" fill="#F05600"/>
</g>
<g clip-path="url(#clip2_803_416)">
<path d="M57.8664 126.606L71.4681 141.61L80.042 123.051L68.5928 46.6233L46.417 50.178L57.8664 126.606ZM75.5857 122.373L70.3002 133.814L61.9151 124.564L51.3286 53.8953L64.9992 51.7039L75.5857 122.373Z" fill="#F05600"/>
<path d="M43.0472 27.6812L45.626 44.8959L67.8014 41.3414L65.2226 24.1266L43.0472 27.6812ZM49.2197 39.8153L47.9588 31.3985L61.629 29.2073L62.8898 37.6241L49.2197 39.8153Z" fill="#F05600"/>
</g>
<defs>
<clipPath id="clip0_803_416">
<rect width="111.936" height="114.82" fill="white" transform="matrix(0.931835 0.362883 -0.342 0.9397 138.895 0)"/>
</clipPath>
<clipPath id="clip1_803_416">
<rect width="88.1949" height="90.7843" fill="white" transform="matrix(0.960708 -0.277561 0.260673 0.965427 211.002 61.6909)"/>
</clipPath>
<clipPath id="clip2_803_416">
<rect width="89.9559" height="89.0396" fill="white" transform="matrix(0.577465 -0.816416 0.797374 0.603486 0.470703 87.876)"/>
</clipPath>
</defs>
</svg>
