<svg width="784" height="698" viewBox="0 0 784 698" fill="none" xmlns="http://www.w3.org/2000/svg">
<path d="M601.426 4.03736C661.169 22.1101 698.822 101.521 732.458 188.598C765.593 275.676 794.711 369.874 780.152 459.142C766.095 548.41 709.364 632.75 635.565 671.086C561.765 709.97 470.896 702.85 403.121 668.348C335.345 633.297 291.166 570.864 240.46 523.766C189.754 477.215 132.521 445.998 79.8074 386.303C27.0933 326.061 -21.6045 236.792 10.024 190.241C41.6524 143.69 153.607 139.309 228.411 127.261C303.717 114.664 341.872 94.4011 401.614 62.0892C460.855 29.7773 542.185 -13.4877 601.426 4.03736Z" fill="#FF8C4B"/>
</svg>
